<?xml version="1.0" encoding="utf-8"?>
<!DOCTYPE svg PUBLIC "-//W3C//DTD SVG 1.0//EN" "http://www.w3.org/TR/2001/REC-SVG-20010904/DTD/svg10.dtd" [
	<!ENTITY ns_svg "http://www.w3.org/2000/svg">
	<!ENTITY ns_xlink "http://www.w3.org/1999/xlink">
]>
<svg version="1.0" id="Layer_1" xmlns="&ns_svg;" xmlns:xlink="&ns_xlink;" width="95" height="95" viewBox="0 0 234.277 234.277" overflow="visible" enable-background="new 0 0 234.277 234.277" xml:space="preserve">
	<g id="XMLID_3_" opacity="0.3">
		<g>
			<circle fill="#E03332" cx="117.138" cy="117.138" r="116.888"/>
		</g>
	</g>
	<path fill="#fff" d="M138.644,173.439c-2.22,0.617-4.184,0.919-5.929,0.919c-3.717,0-6.335-0.603-7.84-1.839
		c-1.505-1.206-2.26-3.52-2.26-6.88c0-1.332,0.23-3.313,0.697-5.929c0.47-2.616,0.991-4.946,1.569-6.975l7.167-25.365
		c0.696-2.33,1.173-4.883,1.443-7.673c0.268-2.791,0.396-4.755,0.396-5.85c0-5.35-1.87-9.694-5.627-13.032
		c-3.758-3.345-9.092-5.017-16.021-5.017c-3.844,0-7.91,0.682-12.222,2.053c-4.304,1.364-8.813,3.005-13.531,4.923l-1.918,7.847
		c1.396-0.522,3.075-1.078,5.025-1.657c1.958-0.578,3.859-0.871,5.732-0.871c3.788,0,6.349,0.642,7.687,1.918
		c1.34,1.276,2.013,3.536,2.013,6.801c0,1.808-0.221,3.788-0.656,5.977c-0.437,2.172-0.978,4.486-1.618,6.928l-7.199,25.46
		c-0.64,2.664-1.1,5.073-1.394,7.198c-0.294,2.125-0.436,4.186-0.436,6.23c0,5.232,1.934,9.544,5.793,12.951
		c3.869,3.395,9.29,5.105,16.267,5.105c4.532,0,8.513-0.603,11.945-1.807c3.433-1.173,8.028-2.918,13.768-5.169l1.935-7.862
		C142.432,172.296,140.832,172.835,138.644,173.439z M140.23,54.033c-3.329-3.139-7.356-4.709-12.064-4.709s-8.752,1.57-12.12,4.709
		c-3.369,3.139-5.057,6.92-5.057,11.335s1.688,8.18,5.057,11.296c3.368,3.106,7.412,4.661,12.12,4.661s8.735-1.554,12.064-4.661
		c3.361-3.116,5.025-6.881,5.025-11.296S143.591,57.171,140.23,54.033z"/>
</svg>
