<svg id="googlePlus" xmlns="http://www.w3.org/2000/svg" viewBox="0 0 88 88"><defs><style>.cls-1{fill:#fff;fill-rule:evenodd;}</style></defs><title>Монтажная область 1 копия</title><g id="logo_googleg_48dp" data-name="logo googleg 48dp"><path class="cls-1" d="M84.4,36.35H45V52.51H67.53a19.19,19.19,0,0,1-8.34,12.61A25.18,25.18,0,1,1,45,18.78,22.58,22.58,0,0,1,61,25L73,13A40.18,40.18,0,0,0,45,2.16a41.79,41.79,0,1,0,0,83.57c11.28,0,20.74-3.74,27.66-10.12,7.9-7.28,12.46-18,12.46-30.71A48.3,48.3,0,0,0,84.4,36.35Z"/></g></svg>