<svg id="googlePlus" xmlns="http://www.w3.org/2000/svg" viewBox="0 0 88 88"><defs><style>.cls-1{fill:#3f4143;fill-rule:evenodd;}</style></defs><title>Монтажная область 1</title><g id="logo_googleg_48dp" data-name="logo googleg 48dp"><path class="cls-1" d="M84.08,36.47H44.73V52.64H67.22a19.25,19.25,0,0,1-8.34,12.61A25.19,25.19,0,1,1,44.73,18.9a22.58,22.58,0,0,1,16,6.25l12-12a40.15,40.15,0,0,0-28-10.89,41.79,41.79,0,1,0,0,83.58c11.28,0,20.74-3.74,27.65-10.13,7.9-7.27,12.46-18,12.46-30.71A47.54,47.54,0,0,0,84.08,36.47Z"/></g></svg>