<?xml version="1.0" encoding="utf-8"?>
<!-- Generator: Adobe Illustrator 16.0.0, SVG Export Plug-In . SVG Version: 6.00 Build 0)  -->
<!DOCTYPE svg PUBLIC "-//W3C//DTD SVG 1.1//EN" "http://www.w3.org/Graphics/SVG/1.1/DTD/svg11.dtd">
<svg version="1.1" id="ok" xmlns="http://www.w3.org/2000/svg" xmlns:xlink="http://www.w3.org/1999/xlink" x="0px" y="0px"
	 width="95.48px" height="95.48px" viewBox="0 0 95.48 95.48" enable-background="new 0 0 95.48 95.48" xml:space="preserve">
<g>
	<g>
		<path fill="#FFFFFF" d="M43.041,67.254c-7.401-0.771-14.076-2.595-19.79-7.063c-0.709-0.557-1.44-1.092-2.088-1.713
			c-2.501-2.401-2.753-5.152-0.773-7.988c1.692-2.426,4.534-3.074,7.488-1.682c0.572,0.271,1.117,0.606,1.64,0.969
			c10.648,7.317,25.277,7.52,35.967,0.329c1.06-0.813,2.19-1.475,3.503-1.813c2.552-0.654,4.931,0.282,6.3,2.515
			c1.563,2.549,1.544,5.037-0.384,7.016c-2.956,3.034-6.511,5.229-10.461,6.762c-3.734,1.447-7.825,2.178-11.875,2.661
			c0.611,0.665,0.898,0.991,1.281,1.376c5.498,5.523,11.021,11.024,16.5,16.565c1.866,1.889,2.257,4.229,1.229,6.425
			c-1.124,2.4-3.641,3.979-6.106,3.811c-1.563-0.107-2.782-0.886-3.865-1.978c-4.148-4.175-8.376-8.272-12.44-12.526
			c-1.184-1.236-1.752-1.003-2.796,0.07c-4.175,4.298-8.416,8.528-12.684,12.735c-1.916,1.889-4.196,2.229-6.418,1.149
			c-2.362-1.146-3.865-3.557-3.749-5.979c0.08-1.64,0.886-2.892,2.011-4.015c5.441-5.434,10.867-10.88,16.296-16.321
			C42.183,68.197,42.518,67.813,43.041,67.254z"/>
		<path fill="#FFFFFF" d="M47.55,48.329C34.345,48.284,23.517,37.337,23.594,24.11C23.67,10.739,34.505-0.037,47.84,0
			C61.202,0.036,71.927,10.967,71.86,24.478C71.792,37.677,60.889,48.375,47.55,48.329z M59.551,24.143
			c-0.022-6.566-5.253-11.795-11.807-11.802c-6.609-0.007-11.887,5.316-11.835,11.943c0.049,6.542,5.323,11.732,11.896,11.709
			C54.357,35.971,59.573,30.709,59.551,24.143z"/>
	</g>
</g>
</svg>
