<?xml version="1.0" encoding="utf-8"?>
<!-- Generator: Adobe Illustrator 18.0.0, SVG Export Plug-In . SVG Version: 6.00 Build 0)  -->
<!DOCTYPE svg PUBLIC "-//W3C//DTD SVG 1.1//EN" "http://www.w3.org/Graphics/SVG/1.1/DTD/svg11.dtd">
<svg version="1.1" id="Слой_1" xmlns="http://www.w3.org/2000/svg" xmlns:xlink="http://www.w3.org/1999/xlink" x="0px" y="0px"
	width="95px" height="95px" viewBox="0 0 512 512" enable-background="new 0 0 512 512" xml:space="preserve">
<path fill="#FFFFFF" d="M419.7,148.2c38.8,27.5,70.7,64.5,92.3,107.8c-47.6,95-144.3,160-256,160c-31.3,0-61.4-5.1-89.6-14.5l39-39
	c16.5,3.6,33.5,5.5,50.6,5.5c44.8,0,88.4-12.7,126.2-36.9c30.1-19.2,55.6-44.9,74.7-75.1c-18.5-29.3-43-54.3-71.8-73.2L419.7,148.2z
	 M256,349c-11.4,0-22.4-1.5-32.9-4.3l156.6-156.6c2.8,10.5,4.3,21.5,4.3,32.9C384,291.7,326.7,349,256,349z M480,0h-26.9
	L343.3,109.8c-27.5-9-56.9-13.8-87.3-13.8C144.3,96,47.6,161,0,256c21.3,42.6,52.6,79.2,90.6,106.5L0,453.1V480h26.9L480,26.9V0z
	 M208,157c24,0,43.9,17.6,47.4,40.7l-54.8,54.8c-23-3.5-40.7-23.4-40.7-47.4C160,178.5,181.5,157,208,157z M55.1,256
	c19.1-30.3,44.6-56,74.7-75.1c2-1.3,3.9-2.5,5.9-3.6c-5,13.7-7.7,28.4-7.7,43.8c0,29.3,9.8,56.2,26.3,77.8l-29.3,29.3
	C97,309.2,73.2,284.7,55.1,256z"/>
</svg>
