<?xml version="1.0" encoding="utf-8"?>
<!-- Generator: Adobe Illustrator 18.0.0, SVG Export Plug-In . SVG Version: 6.00 Build 0)  -->
<!DOCTYPE svg PUBLIC "-//W3C//DTD SVG 1.1//EN" "http://www.w3.org/Graphics/SVG/1.1/DTD/svg11.dtd">
<svg version="1.1" id="Слой_1" xmlns="http://www.w3.org/2000/svg" xmlns:xlink="http://www.w3.org/1999/xlink" x="0px" y="0px"
	width="95px" height="95px" viewBox="0 0 512 512" enable-background="new 0 0 512 512" xml:space="preserve">
<path fill="#FFFFFF" d="M256,96C144.3,96,47.6,161,0,256c47.6,95,144.3,160,256,160c111.7,0,208.4-65,256-160
	C464.4,161,367.7,96,256,96z M382.2,180.9c30.1,19.2,55.6,44.9,74.7,75.1c-19.1,30.3-44.6,56-74.7,75.1
	C344.4,355.3,300.8,368,256,368c-44.8,0-88.4-12.7-126.2-36.9C99.7,312,74.2,286.3,55.1,256c19.1-30.3,44.6-56,74.7-75.1
	c2-1.3,3.9-2.5,5.9-3.6c-5,13.7-7.7,28.4-7.7,43.8c0,70.7,57.3,128,128,128s128-57.3,128-128c0-15.4-2.7-30.1-7.7-43.8
	C378.3,178.4,380.3,179.6,382.2,180.9z M256,205c0,26.5-21.5,48-48,48s-48-21.5-48-48s21.5-48,48-48S256,178.5,256,205z"/>
</svg>
