<?xml version="1.0" encoding="utf-8"?>
<!-- Generator: Adobe Illustrator 16.0.0, SVG Export Plug-In . SVG Version: 6.00 Build 0)  -->
<!DOCTYPE svg PUBLIC "-//W3C//DTD SVG 1.1//EN" "http://www.w3.org/Graphics/SVG/1.1/DTD/svg11.dtd">
<svg version="1.1" id="Capa_1" xmlns="http://www.w3.org/2000/svg" xmlns:xlink="http://www.w3.org/1999/xlink" x="0px" y="0px"
	 width="292px" height="292px" viewBox="154 -1 292 292" enable-background="new 154 -1 292 292" xml:space="preserve">
<g>
	<path d="M222.929,291c-3.103,0-5.627-2.524-5.627-5.627v-64.82h-3.204c-2.033,0-3.914-1.102-4.909-2.875
		c-0.994-1.773-0.953-3.953,0.107-5.688l6.058-9.905c-14.49-10.344-28.239-23.44-38.789-36.961
		C161.803,146.204,154,127.25,154,110.31c0-16.395,5.856-32.281,16.489-44.733c10.511-12.309,25.046-20.56,40.929-23.233
		c0.311-0.052,0.627-0.079,0.941-0.079c2.754,0,5.085,1.975,5.542,4.695c0.249,1.482-0.094,2.973-0.965,4.198
		c-0.872,1.225-2.168,2.036-3.651,2.286c-27.83,4.683-48.029,28.599-48.029,56.867c0,14.406,6.979,30.966,20.183,47.889
		c10.05,12.879,23.684,25.773,37.488,35.466c9.874-6.94,19.939-15.74,28.406-24.84c1.061-1.141,2.563-1.795,4.121-1.795
		c1.427,0,2.788,0.535,3.834,1.508c2.271,2.114,2.399,5.682,0.287,7.953c-9.675,10.398-21.203,20.323-32.479,27.967l-2.959,4.839
		h7.624c3.103,0,5.628,2.525,5.628,5.629c0,3.103-2.525,5.627-5.628,5.627h-3.203v64.82C228.557,288.476,226.032,291,222.929,291z"
		 fill="#928feb"/>
	<path d="M252.065,169.506c-8.742,9.396-18.996,18.319-29.138,25.379c-14.121-9.82-27.947-22.832-38.277-36.07
		c-13.342-17.1-20.395-33.873-20.395-48.504c0-28.759,20.55-53.089,48.863-57.854c2.521-0.424,4.22-2.811,3.796-5.331
		c-0.424-2.521-2.813-4.222-5.331-3.796c-15.65,2.634-29.976,10.765-40.335,22.896C160.771,78.497,155,94.152,155,110.31
		c0,16.715,7.729,35.456,22.354,54.198c10.646,13.643,24.812,27.045,39.341,37.301l-6.545,10.702
		c-0.873,1.429-0.907,3.218-0.089,4.678c0.819,1.46,2.363,2.364,4.037,2.364h4.204v65.82c0,2.555,2.071,4.627,4.627,4.627
		c2.557,0,4.628-2.072,4.628-4.627v-65.82h4.203c2.557,0,4.628-2.072,4.628-4.627c0-2.557-2.071-4.629-4.628-4.629h-9.407
		l4.003-6.546c11.273-7.618,22.776-17.504,32.487-27.94c1.74-1.871,1.635-4.799-0.235-6.54
		C256.734,167.529,253.806,167.635,252.065,169.506z" fill="#928feb"/>
	<path d="M178.138,115.938c-3.103,0-5.628-2.524-5.628-5.627c0-21.08,13.317-40.116,33.137-47.367
		c0.625-0.229,1.275-0.344,1.935-0.344c2.353,0,4.477,1.485,5.285,3.696c1.066,2.914-0.438,6.152-3.351,7.218
		c-15.401,5.634-25.749,20.422-25.749,36.797C183.766,113.413,181.241,115.938,178.138,115.938z"
		fill="#928feb"/>
	<path d="M205.991,63.882c-19.427,7.108-32.48,25.766-32.48,46.428c0,2.556,2.071,4.627,4.628,4.627s4.628-2.072,4.628-4.627
		c0-16.793,10.611-31.958,26.405-37.736c2.4-0.878,3.634-3.536,2.756-5.936C211.05,64.237,208.393,63.003,205.991,63.882z" fill="#928feb"/>
	<path d="M377.071,291c-3.104,0-5.628-2.524-5.628-5.627l-0.001-64.82h-3.203c-2.034,0-3.915-1.102-4.908-2.874
		c-0.995-1.775-0.953-3.955,0.108-5.689l6.057-9.905c-10.143-7.252-20.437-16.313-29.07-25.593c-1.023-1.1-1.558-2.533-1.504-4.035
		c0.055-1.503,0.69-2.894,1.792-3.918c1.044-0.972,2.405-1.508,3.832-1.508c1.559,0,3.061,0.654,4.121,1.795
		c8.468,9.101,18.533,17.9,28.405,24.84c13.807-9.693,27.44-22.588,37.489-35.466c13.204-16.923,20.184-33.482,20.184-47.889
		c0-28.268-20.199-52.185-48.03-56.867c-1.482-0.25-2.778-1.061-3.65-2.286s-1.215-2.715-0.966-4.198
		c0.46-2.721,2.791-4.695,5.543-4.695c0.313,0,0.631,0.027,0.942,0.08c15.882,2.673,30.418,10.924,40.929,23.233
		C440.144,78.028,446,93.915,446,110.31c0,16.94-7.803,35.895-22.565,54.814c-11.31,14.494-26.68,28.818-42.194,39.329l-2.963,4.846
		h7.625c3.103,0,5.627,2.524,5.627,5.627s-2.524,5.627-5.627,5.627h-3.204l0.001,64.82C382.699,288.476,380.175,291,377.071,291z" fill="#928feb"/>
	<path d="M428.752,66.226c-10.359-12.132-24.685-20.263-40.335-22.896c-2.521-0.426-4.906,1.275-5.332,3.796
		c-0.424,2.52,1.275,4.907,3.796,5.331c28.313,4.764,48.864,29.095,48.864,57.854c0,14.632-7.053,31.404-20.396,48.504
		c-10.33,13.239-24.156,26.25-38.277,36.07c-10.143-7.061-20.396-15.984-29.138-25.379c-1.74-1.871-4.669-1.977-6.54-0.235
		c-1.872,1.741-1.978,4.669-0.236,6.54c8.903,9.57,19.316,18.678,29.678,25.999l-6.544,10.702c-0.874,1.428-0.907,3.217-0.089,4.678
		c0.818,1.46,2.362,2.363,4.036,2.363h4.203l0.001,65.82c0,2.556,2.072,4.627,4.628,4.627c2.557,0,4.628-2.071,4.628-4.627
		l-0.001-65.82h4.204c2.556,0,4.627-2.071,4.627-4.627s-2.071-4.627-4.627-4.627h-9.408l4.006-6.553
		c15.499-10.47,30.815-24.717,42.146-39.237C437.271,145.766,445,127.025,445,110.31C445,94.152,439.229,78.497,428.752,66.226z" fill="#928feb"/>
	<path d="M300,291c-3.103,0-5.627-2.524-5.627-5.627v-77.346h-4.773c-2.034,0-3.914-1.102-4.909-2.875
		c-0.995-1.774-0.953-3.954,0.108-5.688l7.617-12.459c-17.026-12.042-33.838-27.991-46.234-43.877
		c-17.249-22.105-26.366-44.217-26.366-63.944C219.816,34.97,255.786-1,300-1c44.214,0,80.184,35.97,80.184,80.184
		c0,19.727-9.117,41.838-26.366,63.944c-13.304,17.052-31.391,33.893-49.648,46.232l-4.533,7.412h10.765
		c3.104,0,5.628,2.524,5.628,5.628s-2.524,5.628-5.628,5.628h-4.773v77.346C305.628,288.476,303.103,291,300,291z M300,10.255
		c-38.007,0-68.928,30.921-68.928,68.928c0,17.195,8.293,36.912,23.984,57.02c12.05,15.443,28.402,30.856,44.944,42.377
		c16.544-11.521,32.896-26.935,44.944-42.377c15.69-20.108,23.984-39.826,23.984-57.02C368.928,41.176,338.008,10.255,300,10.255z" fill="#928feb"/>
	<path d="M353.029,142.512c17.11-21.928,26.154-43.827,26.154-63.329C379.183,35.521,343.662,0,300,0s-79.184,35.521-79.184,79.184
		c0,19.501,9.044,41.4,26.154,63.329c12.645,16.205,29.521,32.126,46.788,44.214l-8.106,13.259
		c-0.874,1.429-0.908,3.217-0.089,4.678c0.818,1.46,2.362,2.364,4.036,2.364h5.773v78.346c0,2.555,2.071,4.627,4.627,4.627
		c2.557,0,4.628-2.072,4.628-4.627v-78.346h5.773c2.557,0,4.628-2.072,4.628-4.628s-2.071-4.628-4.628-4.628h-12.549l5.577-9.119
		C321.666,176.357,339.7,159.596,353.029,142.512z M254.267,136.818c-15.829-20.286-24.195-40.216-24.195-57.635
		c0-38.559,31.37-69.928,69.928-69.928c38.559,0,69.929,31.369,69.929,69.928c0,17.419-8.367,37.349-24.196,57.635
		c-12.33,15.803-28.871,31.33-45.732,42.979C283.138,168.148,266.598,152.621,254.267,136.818z" fill="#928feb"/>
	<path d="M243.955,84.803c-3.103,0-5.628-2.525-5.628-5.628c0.005-34.002,27.671-61.664,61.673-61.664
		c3.104,0,5.628,2.524,5.628,5.627s-2.524,5.628-5.628,5.628c-27.797,0-50.414,22.614-50.417,50.41
		C249.582,82.279,247.057,84.803,243.955,84.803z" fill="#928feb"/>
	<path d="M243.955,83.803c2.556,0,4.627-2.071,4.628-4.627c0.003-28.348,23.069-51.41,51.417-51.41c2.557,0,4.628-2.072,4.628-4.628
		s-2.071-4.627-4.628-4.627c-33.45,0-60.668,27.213-60.673,60.664C239.327,81.73,241.398,83.803,243.955,83.803L243.955,83.803z"
		fill="#928feb"/>
	<path d="M265.216,133.906c-1.747,0-3.365-0.79-4.439-2.166c-8.732-11.19-15.022-22.123-18.696-32.496
		c-1.035-2.925,0.502-6.148,3.427-7.184c0.607-0.214,1.239-0.324,1.878-0.324c2.379,0,4.511,1.507,5.306,3.751
		c3.265,9.225,8.971,19.092,16.958,29.328c1.909,2.447,1.472,5.99-0.974,7.899C267.674,133.494,266.478,133.906,265.216,133.906z"
		fill="#928feb"/>
	<path d="M251.749,95.822c-0.854-2.409-3.498-3.671-5.907-2.818c-2.409,0.853-3.671,3.498-2.818,5.907
		c3.637,10.269,9.874,21.107,18.541,32.214c0.913,1.17,2.275,1.781,3.651,1.781c0.996,0,1.998-0.32,2.845-0.979
		c2.015-1.572,2.373-4.48,0.801-6.496C260.807,115.111,255.05,105.148,251.749,95.822z" fill="#928feb"/>
</g>
</svg>
