<?xml version="1.0" encoding="utf-8"?>
<!-- Generator: Adobe Illustrator 16.0.0, SVG Export Plug-In . SVG Version: 6.00 Build 0)  -->
<!DOCTYPE svg PUBLIC "-//W3C//DTD SVG 1.1//EN" "http://www.w3.org/Graphics/SVG/1.1/DTD/svg11.dtd">
<svg version="1.1" id="Capa_1" xmlns="http://www.w3.org/2000/svg" xmlns:xlink="http://www.w3.org/1999/xlink" x="0px" y="0px"
	 width="290px" height="260.546px" viewBox="155 14.727 290 260.546" enable-background="new 155 14.727 290 260.546"
	 xml:space="preserve">
<g>
	<g>
		<g>
			<path d="M291.374,77.443c-0.058-2.525-1.777-4.708-4.22-5.352l-54.008-14.243c-0.004-0.001-0.008-0.002-0.012-0.003
				l-20.341-5.364c-2.408-0.637-4.956,0.381-6.266,2.504C198.382,68.199,191.974,82.9,188.001,97.5
				c-6.634,24.366-5.508,45.269,3.256,60.45c5.07,8.783,12.512,15.229,21.706,18.901l-20.824,76.493l-30.029-7.919
				c-3.021-0.798-6.123,1.007-6.921,4.032s1.008,6.123,4.032,6.922c0.003,0,35.416,9.34,35.418,9.342
				c0.003,0,35.504,9.363,35.507,9.363c0.483,0.128,0.97,0.189,1.448,0.189c2.51,0,4.803-1.682,5.473-4.221
				c0.798-3.025-1.007-6.124-4.032-6.922l-29.941-7.896l20.82-76.479c2.04,0.282,4.083,0.428,6.111,0.428
				c25.257,0,46.115-21.23,55.797-56.793C289.797,108.788,291.716,92.899,291.374,77.443z M274.889,120.415
				c-8.257,30.332-25.029,48.441-44.866,48.441c-2.89,0-5.831-0.39-8.745-1.158c-8.729-2.303-15.719-7.632-20.21-15.412
				c-5.328-9.229-7.122-21.405-5.359-35.747c7.563,1.23,14.703,1.707,21.472,1.707c11.138,0,21.285-1.256,30.72-2.424
				c10.642-1.317,20.087-2.481,28.481-1.431C275.924,116.42,275.429,118.431,274.889,120.415z M278.45,103.244
				c-10.041-1.367-20.732-0.052-31.94,1.335c-14.336,1.775-30.41,3.763-48.812,0.814c0.373-1.619,0.781-3.256,1.233-4.917
				c3.338-12.26,8.528-24.609,15.095-35.955l8.999,2.374c-1.631,3.144-3.135,6.373-4.308,9.003
				c-1.272,2.857,0.012,6.206,2.868,7.479c0.749,0.334,1.532,0.492,2.303,0.492c2.167,0,4.237-1.252,5.177-3.359
				c1.832-4.111,3.623-7.758,5.22-10.646l45.797,12.078C280.035,89.049,279.481,96.212,278.45,103.244z" fill="#928feb"/>
		</g>
	</g>
	<g>
		<g>
			<g>
				<path d="M405.361,265.721c-0.002,0.001-0.005,0.001-0.007,0.002l-35.217,9.287C373.453,274.135,405.364,265.72,405.361,265.721z
					" fill="#928feb"/>
				<path d="M370.137,275.01c-0.182,0.048-0.282,0.074-0.282,0.074L370.137,275.01z" fill="#928feb"/>
				<path d="M444.811,249.457c-0.797-3.024-3.898-4.828-6.921-4.032l-30.029,7.919l-20.824-76.494
					c9.193-3.672,16.635-10.118,21.705-18.901c8.764-15.181,9.89-36.084,3.257-60.449c-3.975-14.6-10.382-29.301-18.528-42.515
					c-1.31-2.124-3.855-3.141-6.266-2.504l-74.359,19.611c-2.442,0.644-4.163,2.826-4.219,5.352
					c-0.309,13.908,1.221,28.162,4.426,41.517c0.036,0.188,0.08,0.374,0.134,0.555c0.317,1.3,0.645,2.595,0.993,3.876
					c9.681,35.56,30.538,56.791,55.796,56.794c0.001,0,0.002,0,0.004,0c2.027,0,4.069-0.146,6.108-0.429l20.82,76.479l-29.941,7.896
					c-3.025,0.798-4.83,3.896-4.032,6.922c0.67,2.541,2.964,4.221,5.473,4.221c0.479,0,0.965-0.061,1.448-0.188l35.497-9.362h0.002
					l35.426-9.344C443.804,255.581,445.609,252.482,444.811,249.457z M319.919,81.94l66.055-17.42
					c6.566,11.345,11.757,23.694,15.095,35.955c0.968,3.556,1.75,7.014,2.355,10.369c-3.445-0.342-6.956-0.394-10.533-0.251
					c-0.607-4.146-1.503-8.469-2.266-11.821c-0.692-3.05-3.729-4.962-6.778-4.268c-3.051,0.693-4.962,3.728-4.268,6.779
					c0.859,3.78,1.535,7.262,1.995,10.246c-2.564,0.292-5.157,0.622-7.779,0.956c-14.704,1.876-31.259,3.986-50.478,0.559
					C321.145,102.957,319.985,92.388,319.919,81.94z M369.979,168.855c0,0-0.002,0-0.003,0
					c-18.815-0.002-34.868-16.301-43.518-43.859c6.315,0.866,12.322,1.219,18.049,1.219c11.172,0,21.306-1.293,30.722-2.495
					c11.105-1.417,20.892-2.663,29.592-1.295c0.66,11.801-1.308,21.921-5.891,29.859c-4.491,7.78-11.479,13.11-20.209,15.412
					C375.807,168.466,372.866,168.855,369.979,168.855z" fill="#928feb"/>
			</g>
		</g>
	</g>
	<g>
		<g>
			<path d="M300,14.727c-3.128,0-5.664,2.536-5.664,5.664v14.774c0,3.128,2.536,5.664,5.664,5.664s5.664-2.536,5.664-5.664V20.391
				C305.664,17.263,303.128,14.727,300,14.727z" fill="#928feb"/>
		</g>
	</g>
	<g>
		<g>
			<path d="M281.663,42.505l-7.505-12.794c-1.583-2.698-5.053-3.604-7.752-2.02c-2.698,1.583-3.603,5.053-2.02,7.751l7.505,12.794
				c1.055,1.798,2.947,2.799,4.892,2.799c0.974,0,1.96-0.251,2.86-0.779C282.342,48.674,283.246,45.203,281.663,42.505z" fill="#928feb"/>
		</g>
	</g>
	<g>
		<g>
			<path d="M333.594,27.691c-2.698-1.583-6.168-0.678-7.751,2.02l-7.505,12.794c-1.584,2.698-0.679,6.169,2.02,7.751
				c0.9,0.528,1.887,0.779,2.86,0.779c1.943,0,3.836-1.001,4.892-2.799l7.505-12.794C337.196,32.744,336.292,29.273,333.594,27.691z
				" fill="#928feb"/>
		</g>
	</g>
	<g>
		<g>
			<path d="M386.414,83.113c-0.002-0.007-0.007-0.021-0.011-0.034c-0.925-2.964-4.068-4.635-7.045-3.736
				c-2.995,0.904-4.689,4.064-3.785,7.059c0.01,0.03,0.026,0.085,0.037,0.119c0.765,2.412,2.993,3.955,5.397,3.955
				c0.562,0,1.133-0.084,1.697-0.262C385.69,89.276,387.35,86.098,386.414,83.113z" fill="#928feb"/>
		</g>
	</g>
	<g>
		<g>
			<circle cx="217.303" cy="92.889" r="5.664" fill="#928feb"/>
		</g>
	</g>
</g>
</svg>
