<?xml version="1.0" encoding="utf-8"?>
<!-- Generator: Adobe Illustrator 16.0.0, SVG Export Plug-In . SVG Version: 6.00 Build 0)  -->
<!DOCTYPE svg PUBLIC "-//W3C//DTD SVG 1.1//EN" "http://www.w3.org/Graphics/SVG/1.1/DTD/svg11.dtd">
<svg version="1.1" id="Capa_1" xmlns="http://www.w3.org/2000/svg" xmlns:xlink="http://www.w3.org/1999/xlink" x="0px" y="0px"
	 width="290.001px" height="290px" viewBox="155 0 290.001 290" enable-background="new 155 0 290.001 290" xml:space="preserve">
<g>
	<g>
		<g>
			<path d="M350.899,159.643c10.848-5.024,21.648-8.69,32.259-10.936c3.06-0.647,5.016-3.653,4.368-6.713
				c-0.647-3.061-3.649-5.017-6.714-4.369c-12.281,2.599-24.755,6.944-37.229,12.951c-6.969-8.312-14.946-17.001-23.553-25.608
				c-9.146-9.145-18.387-17.585-27.165-24.853c7.597-9.605,13.797-20.361,18.487-32.131c7.314-18.353,11.023-39.32,11.023-62.321
				c0-3.128-2.536-5.664-5.664-5.664s-5.664,2.536-5.664,5.664c0,35.441-9.088,64.773-27.033,87.408
				c-3.387-2.583-6.671-4.958-9.806-7.072c-16.787-11.322-26.785-13.975-32.373-8.588c-0.04,0.037-0.081,0.073-0.12,0.111
				c-0.006,0.005-0.011,0.011-0.017,0.016c-0.004,0.003-0.007,0.007-0.01,0.01c-1.432,1.435-2.314,3.17-2.649,5.24L155.44,282.146
				c-0.889,2.12-0.407,4.569,1.219,6.195c1.084,1.083,2.533,1.659,4.007,1.659c0.737,0,1.481-0.145,2.189-0.441
				c0.016-0.006,0,0,0.016-0.006l199.342-83.595c1.89-0.306,3.495-1.079,4.854-2.3c0.099-0.082,0.19-0.17,0.283-0.258
				c0.036-0.035,0.075-0.064,0.11-0.101c0.006-0.006,0.011-0.013,0.016-0.017c0.039-0.039,0.075-0.081,0.113-0.121
				c5.387-5.589,2.733-15.586-8.589-32.372C356.606,167.242,353.887,163.508,350.899,159.643z M199.925,249.648
				c-1.183,7.371-3.811,12.216-5.075,14.209l-23.607,9.9l23.976-57.172C199.908,228.346,201.534,239.609,199.925,249.648z
				 M234.779,230.484c-2.284,13.018-8.341,19.293-10.063,20.85l-14.926,6.258c3.318-11.811,4.19-30.561-8.632-55.172l16.974-40.475
				C235.743,195.334,237.064,217.458,234.779,230.484z M254.983,238.641l-12.208,5.119c1.163-2.938,2.188-6.286,2.932-10.079
				c4.534-23.14-2.867-51.75-21.984-85.067L229.85,134c4.851,5.836,10.378,14.098,12.616,19.307c0.922,2.145,3.011,3.43,5.207,3.43
				c0.745,0,1.505-0.149,2.233-0.462c2.874-1.235,4.202-4.565,2.968-7.44c-3.321-7.728-11.743-19.753-18.186-26.371l9.364-22.331
				c1.64,3.007,3.672,6.303,6.108,9.916c1.678,2.487,3.516,5.066,5.492,7.717c19.375,29.4,18.937,59.493,15.149,79.571
				C266.776,218.692,258.151,234.328,254.983,238.641z M298.627,220.339l-26.89,11.276c3.883-8.518,7.844-19.697,10.197-32.18
				c2.63-13.941,3.785-32.274-1.079-52.072c2.683,2.834,5.442,5.676,8.274,8.507c8.473,8.472,17.023,16.333,25.216,23.223
				C313.534,205.834,301.268,218.02,298.627,220.339z M318.15,212.151c3.032-6.272,5.71-14.357,6.903-24.454
				c3.419,2.609,6.734,5.008,9.898,7.142c3.614,2.438,6.909,4.468,9.918,6.108L318.15,212.151z M338.072,183.225
				c-12.313-8.725-26.851-21.285-40.932-35.365c-14.081-14.082-26.641-28.619-35.365-40.932
				c-8.437-11.908-10.71-17.988-11.309-20.622c2.634,0.599,8.714,2.873,20.622,11.309c1.766,1.251,3.581,2.589,5.43,3.991
				c-0.397,0.409-0.789,0.822-1.193,1.226c-2.212,2.212-2.212,5.798,0,8.011c1.106,1.105,2.556,1.659,4.005,1.659
				c1.45,0,2.899-0.553,4.006-1.659c0.711-0.711,1.411-1.433,2.104-2.16c8.592,7.102,17.676,15.394,26.581,24.299
				c7.657,7.657,14.856,15.446,21.242,22.942c-1.023,0.568-2.045,1.146-3.067,1.736c-2.709,1.563-3.638,5.027-2.073,7.736
				c1.049,1.816,2.952,2.834,4.91,2.834c0.961,0,1.936-0.246,2.827-0.761c1.572-0.909,3.146-1.78,4.719-2.632
				c2.461,3.125,4.744,6.164,6.807,9.076c8.438,11.907,10.71,17.987,11.309,20.621C356.059,193.934,349.979,191.66,338.072,183.225z
				" fill="#928feb"/>
			<path d="M257.454,163.427c-1.284-2.853-4.637-4.125-7.489-2.841c-2.765,1.244-4.045,4.43-2.953,7.223
				c0.857,2.244,3.001,3.642,5.29,3.642c0.62,0,1.252-0.103,1.871-0.319c2.952-1.033,4.509-4.265,3.475-7.217
				C257.594,163.76,257.52,163.575,257.454,163.427z" fill="#928feb"/>
			<path d="M366.514,87.618c1.106,1.105,2.556,1.659,4.006,1.659c1.449,0,2.898-0.553,4.005-1.659
				c12.655-12.655,33.158-18.456,48.128-19.664c3.118-0.251,5.441-2.984,5.19-6.102c-0.252-3.118-2.979-5.432-6.102-5.19
				c-16.978,1.37-40.399,8.117-55.228,22.945C364.303,81.82,364.303,85.406,366.514,87.618z" fill="#928feb"/>
			<path d="M440.802,57.752c-0.16-0.043-0.323-0.085-0.488-0.127c-3.035-0.757-6.108,1.093-6.864,4.128
				c-0.756,3.036,1.092,6.109,4.128,6.865l0.289,0.075c0.491,0.132,0.985,0.195,1.472,0.195c2.5,0,4.788-1.668,5.467-4.198
				C445.616,61.67,443.824,58.563,440.802,57.752z" fill="#928feb"/>
			<path d="M196.634,47.363h5.664v5.664c0,3.128,2.535,5.664,5.664,5.664c3.128,0,5.664-2.536,5.664-5.664v-5.664h5.664
				c3.128,0,5.664-2.536,5.664-5.664c0-3.127-2.536-5.664-5.664-5.664h-5.664v-5.664c0-3.127-2.536-5.664-5.664-5.664
				c-3.129,0-5.664,2.537-5.664,5.664v5.664h-5.664c-3.129,0-5.664,2.537-5.664,5.664C190.969,44.828,193.505,47.363,196.634,47.363
				z" fill="#928feb"/>
			<path d="M329.171,102.304h5.665v5.664c0,3.128,2.536,5.664,5.664,5.664s5.664-2.536,5.664-5.664v-5.664h5.663
				c3.128,0,5.664-2.536,5.664-5.664c0-3.127-2.536-5.664-5.664-5.664h-5.663v-5.665c0-3.127-2.536-5.664-5.664-5.664
				s-5.664,2.537-5.664,5.664v5.665h-5.665c-3.127,0-5.664,2.537-5.664,5.664C323.507,99.769,326.044,102.304,329.171,102.304z" fill="#928feb"/>
			<path d="M407.901,236.541h-5.664v-5.664c0-3.127-2.536-5.664-5.664-5.664s-5.664,2.537-5.664,5.664v5.664h-5.664
				c-3.128,0-5.664,2.537-5.664,5.664c0,3.128,2.536,5.664,5.664,5.664h5.664v5.664c0,3.128,2.536,5.664,5.664,5.664
				s5.664-2.536,5.664-5.664v-5.664h5.664c3.128,0,5.664-2.536,5.664-5.664C413.565,239.078,411.029,236.541,407.901,236.541z" fill="#928feb"/>
			<path d="M375.881,33.985c9.37,0,16.992-7.623,16.992-16.992S385.251,0,375.881,0c-9.369,0-16.992,7.623-16.992,16.992
				S366.511,33.985,375.881,33.985z M375.881,11.329c3.123,0,5.664,2.541,5.664,5.664s-2.541,5.664-5.664,5.664
				s-5.664-2.541-5.664-5.664S372.758,11.329,375.881,11.329z" fill="#928feb"/>
			<path d="M411.3,98.339c-9.37,0-16.992,7.623-16.992,16.992s7.622,16.992,16.992,16.992c9.369,0,16.992-7.623,16.992-16.992
				S420.669,98.339,411.3,98.339z M411.3,120.995c-3.123,0-5.664-2.541-5.664-5.664s2.541-5.664,5.664-5.664
				s5.664,2.541,5.664,5.664S414.423,120.995,411.3,120.995z" fill="#928feb"/>
			<path d="M267.433,54.16c9.369,0,16.992-7.623,16.992-16.992c0-9.369-7.623-16.992-16.992-16.992s-16.992,7.623-16.992,16.992
				C250.441,46.537,258.064,54.16,267.433,54.16z M267.433,31.503c3.123,0,5.664,2.541,5.664,5.664s-2.541,5.664-5.664,5.664
				s-5.664-2.541-5.664-5.664C261.769,34.045,264.31,31.503,267.433,31.503z" fill="#928feb"/>
			<path d="M409.424,166.557c0-3.12-2.544-5.664-5.664-5.664c-3.119,0-5.664,2.544-5.664,5.664c0,3.119,2.545,5.664,5.664,5.664
				C406.88,172.221,409.424,169.676,409.424,166.557z" fill="#928feb"/>
			<path d="M344.853,53.843c3.12,0,5.664-2.544,5.664-5.664c0-3.12-2.544-5.664-5.664-5.664s-5.664,2.544-5.664,5.664
				C339.189,51.298,341.734,53.843,344.853,53.843z" fill="#928feb"/>
			<path d="M420.752,203.372c-3.12,0-5.665,2.545-5.665,5.665c0,3.119,2.545,5.664,5.665,5.664c3.119,0,5.664-2.545,5.664-5.664
				C426.416,205.917,423.871,203.372,420.752,203.372z" fill="#928feb"/>
			<path d="M233.84,16.993c3.119,0,5.664-2.544,5.664-5.664s-2.545-5.664-5.664-5.664c-3.12,0-5.664,2.544-5.664,5.664
				S230.719,16.993,233.84,16.993z" fill="#928feb"/>
		</g>
	</g>
</g>
</svg>
