<?xml version="1.0" encoding="utf-8"?>
<!-- Generator: Adobe Illustrator 16.0.0, SVG Export Plug-In . SVG Version: 6.00 Build 0)  -->
<!DOCTYPE svg PUBLIC "-//W3C//DTD SVG 1.1//EN" "http://www.w3.org/Graphics/SVG/1.1/DTD/svg11.dtd">
<svg version="1.1" id="Capa_1" xmlns="http://www.w3.org/2000/svg" xmlns:xlink="http://www.w3.org/1999/xlink" x="0px" y="0px"
	 width="290.001px" height="290px" viewBox="154.999 0 290.001 290" enable-background="new 154.999 0 290.001 290"
	 xml:space="preserve">
<g>
	<g>
		<path d="M381.993,63.074c-2.212-2.212-5.798-2.211-8.011,0l-42.017,42.018c-2.212,2.212-2.212,5.799,0,8.01
			c1.106,1.106,2.556,1.659,4.005,1.659c1.45,0,2.899-0.553,4.006-1.659l42.017-42.017
			C384.205,68.874,384.205,65.287,381.993,63.074z" fill="#928feb"/>
	</g>
</g>
<g>
	<g>
		<path d="M411.333,195.949l-62.001-35.795c-2.709-1.564-6.173-0.637-7.737,2.072s-0.636,6.173,2.073,7.737l62.001,35.797
			c0.893,0.515,1.866,0.761,2.827,0.761c1.957,0,3.861-1.017,4.91-2.834C414.97,200.979,414.042,197.514,411.333,195.949z" fill="#928feb"/>
	</g>
</g>
<g>
	<g>
		<path d="M247.617,165.184c-1.564-2.709-5.028-3.638-7.737-2.072l-51.461,29.711c-2.709,1.564-3.637,5.027-2.072,7.736
			c1.049,1.817,2.952,2.834,4.91,2.834c0.96,0,1.935-0.246,2.826-0.761l51.461-29.711
			C248.253,171.356,249.18,167.893,247.617,165.184z" fill="#928feb"/>
	</g>
</g>
<g>
	<g>
		<path d="M261.404,98.317L219.386,56.3c-2.212-2.212-5.798-2.212-8.011,0c-2.212,2.212-2.211,5.799,0.001,8.011l42.018,42.017
			c1.105,1.106,2.555,1.659,4.005,1.659c1.449,0,2.899-0.553,4.005-1.659C263.616,104.116,263.616,100.53,261.404,98.317z" fill="#928feb"/>
	</g>
</g>
<g>
	<g>
		<path d="M423.552,141.178c-2.454-1.939-6.017-1.521-7.956,0.933c-2.255,2.854-6.412,3.342-9.266,1.086
			c-7.756-6.128-19.051-4.805-25.179,2.95c-1.939,2.454-1.522,6.016,0.933,7.955c2.454,1.941,6.017,1.523,7.955-0.932
			c2.256-2.854,6.412-3.34,9.268-1.086c3.283,2.596,7.202,3.854,11.095,3.854c5.299,0,10.55-2.333,14.083-6.804
			C426.425,146.68,426.007,143.118,423.552,141.178z" fill="#928feb"/>
	</g>
</g>
<g>
	<g>
		<path d="M346.655,29.646c-1.529-2.728-4.98-3.7-7.71-2.17c-2.729,1.53-3.7,4.982-2.171,7.71c0.862,1.537,1.073,3.318,0.596,5.014
			c-0.477,1.696-1.587,3.105-3.124,3.966c-8.621,4.834-11.703,15.78-6.869,24.402c1.038,1.854,2.962,2.896,4.945,2.896
			c0.938,0,1.889-0.233,2.765-0.724c2.729-1.53,3.7-4.982,2.171-7.71c-1.779-3.173-0.645-7.202,2.528-8.981
			c4.177-2.341,7.19-6.169,8.488-10.778S348.997,33.822,346.655,29.646z" fill="#928feb"/>
	</g>
</g>
<g>
	<g>
		<path d="M210.242,149.635c-2.772-1.445-6.194-0.369-7.642,2.402c-1.682,3.225-5.675,4.48-8.9,2.799
			c-8.764-4.572-19.612-1.16-24.183,7.604c-1.447,2.773-0.371,6.195,2.402,7.641c0.837,0.438,1.732,0.645,2.614,0.645
			c2.043,0,4.017-1.109,5.027-3.047c1.683-3.225,5.675-4.48,8.9-2.798c8.764,4.57,19.611,1.159,24.183-7.603
			C214.091,154.504,213.015,151.082,210.242,149.635z" fill="#928feb"/>
	</g>
</g>
<g>
	<g>
		<path d="M301.351,127.018c-10.619,0-19.258,8.639-19.258,19.258c0,10.619,8.639,19.258,19.258,19.258s19.258-8.639,19.258-19.258
			C320.609,135.657,311.97,127.018,301.351,127.018z M301.351,154.205c-4.372,0-7.93-3.557-7.93-7.93c0-4.373,3.558-7.93,7.93-7.93
			c4.373,0,7.93,3.557,7.93,7.93C309.281,150.648,305.724,154.205,301.351,154.205z" fill="#928feb"/>
	</g>
</g>
<g>
	<g>
		<path d="M330.455,261.023l-11.118-10.838l2.625-15.305c0.365-2.125-0.509-4.271-2.253-5.539s-4.057-1.434-5.965-0.432l-8.08,4.248
			v-50.294c0-3.128-2.535-5.664-5.664-5.664c-3.128,0-5.664,2.536-5.664,5.664v50.294l-8.079-4.248
			c-1.908-1.002-4.222-0.836-5.965,0.432c-1.744,1.268-2.618,3.414-2.254,5.539l2.625,15.305l-11.119,10.838
			c-1.544,1.506-2.1,3.756-1.434,5.807s2.439,3.545,4.572,3.855l15.366,2.232l6.872,13.924c0.954,1.934,2.923,3.157,5.079,3.157
			c2.155,0,4.125-1.224,5.079-3.157l6.871-13.924l15.366-2.232c2.134-0.311,3.906-1.805,4.572-3.855
			S331.999,262.529,330.455,261.023z M307.375,262.136c-1.845,0.269-3.439,1.427-4.264,3.099L300,271.537l-3.11-6.303
			c-0.821-1.664-2.405-2.82-4.24-3.095c-0.009-0.001-0.068-0.011-0.076-0.012l-6.903-1.003l5.033-4.906
			c1.335-1.301,1.944-3.176,1.629-5.014l-1.188-6.928l4.461,2.346c1.039,1.277,2.621,2.096,4.396,2.096s3.357-0.818,4.396-2.096
			l4.46-2.346l-1.188,6.928c-0.315,1.838,0.294,3.713,1.63,5.014l5.032,4.906L307.375,262.136z" fill="#928feb"/>
	</g>
</g>
<g>
	<g>
		<path d="M434.422,46.204l-8.379-11.228l4.499-13.267c0.693-2.042,0.166-4.3-1.358-5.825c-1.524-1.524-3.783-2.051-5.824-1.359
			l-13.268,4.499l-11.227-8.378c-1.729-1.29-4.038-1.486-5.96-0.508c-1.921,0.979-3.119,2.963-3.092,5.119l0.179,14.008
			l-11.438,8.089c-1.76,1.245-2.66,3.381-2.323,5.511c0.337,2.129,1.854,3.883,3.912,4.522l13.378,4.159l4.159,13.378
			c0.64,2.059,2.394,3.576,4.522,3.913c0.296,0.047,0.593,0.07,0.887,0.07c1.82,0,3.552-0.878,4.624-2.394l8.089-11.438
			l14.008,0.179c2.154,0.017,4.141-1.171,5.119-3.092C435.908,50.241,435.711,47.932,434.422,46.204z M412.969,43.709
			c-1.855-0.033-3.621,0.871-4.697,2.393l-3.182,4.499l-1.636-5.262c-0.553-1.78-1.947-3.174-3.728-3.728l-5.262-1.636l4.5-3.181
			c1.522-1.076,2.417-2.833,2.393-4.697l-0.07-5.51l4.416,3.295c1.494,1.115,3.441,1.424,5.206,0.825l5.219-1.77l-1.771,5.218
			c-0.599,1.765-0.262,3.75,0.854,5.245l3.268,4.378L412.969,43.709z" fill="#928feb"/>
	</g>
</g>
<g>
	<g>
		<path d="M211.993,27.833l-11.438-8.088l0.18-14.008c0.027-2.156-1.171-4.141-3.092-5.119c-1.922-0.979-4.231-0.783-5.96,0.507
			l-11.227,8.379l-13.268-4.499c-2.041-0.693-4.3-0.166-5.824,1.359s-2.052,3.782-1.358,5.824l4.499,13.267l-8.379,11.227
			c-1.289,1.728-1.486,4.038-0.507,5.959c0.968,1.9,2.918,3.093,5.046,3.093c0.024,0,0.049,0,0.073,0l14.008-0.179l8.089,11.438
			c1.071,1.516,2.804,2.395,4.623,2.395c0.294,0,0.591-0.023,0.887-0.07c2.13-0.337,3.883-1.854,4.523-3.914l4.158-13.378
			l13.378-4.158c2.059-0.64,3.576-2.394,3.913-4.523C214.654,31.214,213.754,29.078,211.993,27.833z M190.819,32.091
			c-1.779,0.554-3.174,1.947-3.728,3.728l-1.636,5.262l-3.181-4.499c-1.063-1.502-2.788-2.394-4.625-2.394c-0.023,0-0.048,0-0.072,0
			l-5.51,0.07l3.295-4.416c1.115-1.494,1.424-3.441,0.825-5.206l-1.77-5.219l5.219,1.77c1.76,0.597,3.698,0.293,5.19-0.813
			c0.005-0.004,0.049-0.036,0.054-0.04l4.378-3.267l-0.07,5.51c-0.023,1.864,0.871,3.62,2.394,4.696l4.499,3.182L190.819,32.091z" fill="#928feb"/>
	</g>
</g>
<g>
	<g>
		<path d="M265.902,197.586c-2.623-1.707-6.131-0.965-7.837,1.658l-53.358,82.002c-1.705,2.621-0.963,6.131,1.659,7.836
			c0.953,0.621,2.024,0.918,3.084,0.918c1.852,0,3.667-0.908,4.753-2.576l53.357-82.002
			C269.266,202.801,268.523,199.291,265.902,197.586z" fill="#928feb"/>
	</g>
</g>
<g>
	<g>
		<path d="M265.237,131.432l-103.329-23.246c-3.053-0.686-6.083,1.23-6.77,4.283c-0.687,3.052,1.231,6.083,4.283,6.769
			l103.33,23.246c0.418,0.094,0.836,0.139,1.248,0.139c2.591,0,4.929-1.789,5.521-4.422
			C270.207,135.149,268.29,132.119,265.237,131.432z" fill="#928feb"/>
	</g>
</g>
<g>
	<g>
		<path d="M300,7.364c-3.128,0-5.664,2.536-5.664,5.664V94.59c0,3.128,2.536,5.664,5.664,5.664c3.129,0,5.664-2.536,5.664-5.664
			V13.028C305.664,9.9,303.129,7.364,300,7.364z" fill="#928feb"/>
	</g>
</g>
<g>
	<g>
		<path d="M444.861,112.469c-0.688-3.053-3.721-4.97-6.77-4.282l-89.679,20.186c-3.052,0.687-4.97,3.718-4.282,6.77
			c0.592,2.633,2.93,4.421,5.521,4.421c0.412,0,0.83-0.045,1.249-0.139l89.679-20.186
			C443.631,118.552,445.548,115.521,444.861,112.469z" fill="#928feb"/>
	</g>
</g>
<g>
	<g>
		<path d="M395.294,281.248l-53.678-82.561c-1.705-2.623-5.214-3.367-7.836-1.662c-2.622,1.706-3.365,5.214-1.661,7.837
			l53.678,82.56c1.086,1.669,2.901,2.578,4.754,2.578c1.059,0,2.129-0.297,3.082-0.916
			C396.255,287.378,396.999,283.871,395.294,281.248z" fill="#928feb"/>
	</g>
</g>
<g>
	<g>
		<path d="M428.333,206.59h-0.177c-3.128,0-5.664,2.537-5.664,5.664c0,3.128,2.536,5.664,5.664,5.664h0.177
			c3.129,0,5.664-2.536,5.664-5.664C433.997,209.127,431.462,206.59,428.333,206.59z" fill="#928feb"/>
	</g>
</g>
<g>
	<g>
		<path d="M172.014,203.221h-0.178c-3.128,0-5.664,2.536-5.664,5.664c0,3.127,2.536,5.664,5.664,5.664h0.178
			c3.128,0,5.664-2.537,5.664-5.664C177.678,205.757,175.142,203.221,172.014,203.221z" fill="#928feb"/>
	</g>
</g>
<g>
	<g>
		<path d="M396.962,91.298h-0.177c-3.129,0-5.664,2.536-5.664,5.664c0,3.128,2.535,5.664,5.664,5.664h0.177
			c3.129,0,5.664-2.536,5.664-5.664C402.626,93.834,400.091,91.298,396.962,91.298z" fill="#928feb"/>
	</g>
</g>
<g>
	<g>
		<path d="M259.848,30.586h-0.177c-3.129,0-5.664,2.536-5.664,5.664c0,3.128,2.535,5.664,5.664,5.664h0.177
			c3.129,0,5.664-2.536,5.664-5.664C265.512,33.123,262.976,30.586,259.848,30.586z" fill="#928feb"/>
	</g>
</g>
<g>
	<g>
		<path d="M275.569,177.2h-0.177c-3.129,0-5.664,2.536-5.664,5.664s2.535,5.664,5.664,5.664h0.177c3.128,0,5.664-2.536,5.664-5.664
			S278.697,177.2,275.569,177.2z" fill="#928feb"/>
	</g>
</g>
</svg>
